<?xml version="1.0" encoding="UTF-8"?>
<svg xmlns="http://www.w3.org/2000/svg" xmlns:xlink="http://www.w3.org/1999/xlink" version="1.1" width="3840px" height="2160px" style="shape-rendering:geometricPrecision; text-rendering:geometricPrecision; image-rendering:optimizeQuality; fill-rule:evenodd; clip-rule:evenodd">
  <g>
    <path style="opacity:0.991" fill="#000000" d="M 249.5,1318.5 C 242.039,1309.94 233.039,1303.61 222.5,1299.5C 219.823,1297.54 216.823,1296.04 213.5,1295C 205.779,1292.92 198.279,1291.42 191,1290.5C 184.625,1290.99 178.458,1292.49 172.5,1295C 168.813,1298.2 168.647,1301.7 172,1305.5C 175.167,1308.67 178.333,1311.83 181.5,1315C 195.47,1322.97 207.637,1333.13 218,1345.5C 225.079,1354.65 231.413,1364.32 237,1374.5C 249.193,1416.03 276.026,1442.86 317.5,1455C 349.841,1462.35 382.174,1462.18 414.5,1454.5C 415.737,1454.56 416.737,1455.06 417.5,1456C 417.646,1489.02 417.479,1522.19 417,1555.5C 414.36,1566.14 407.693,1572.81 397,1575.5C 391.583,1574.69 386.083,1574.19 380.5,1574C 248.665,1527.15 150.831,1441.65 87,1317.5C 25.1354,1188.57 17.802,1055.57 65,918.5C 119.31,777.525 216.143,678.025 355.5,620C 459.121,580.375 564.788,574.042 672.5,601C 806.15,639.028 908.984,717.195 981,835.5C 1048.1,954.304 1066.44,1080.3 1036,1213.5C 1005.34,1332.4 941.174,1428.57 843.5,1502C 800.748,1532.55 754.415,1556.55 704.5,1574C 698.167,1574.67 691.833,1574.67 685.5,1574C 675.292,1570.45 669.459,1563.29 668,1552.5C 668.392,1501.39 668.392,1449.72 668,1397.5C 666.802,1371.59 658.469,1347.59 643,1325.5C 640.131,1322.3 636.965,1319.46 633.5,1317C 666.777,1312.28 699.443,1304.61 731.5,1294C 801.57,1266.92 843.737,1216.42 858,1142.5C 865.291,1105.54 866.958,1069.54 863,1034.5C 857.303,994.283 840.803,959.449 813.5,930C 827.865,885.135 826.365,840.968 809,797.5C 808.25,796.874 807.416,796.374 806.5,796C 785.025,794.913 764.358,798.58 744.5,807C 718.129,817.924 693.629,831.758 671,848.5C 586.87,826.413 503.036,825.913 419.5,847C 419,847.5 418.5,848 418,848.5C 402.827,839.825 387.66,830.991 372.5,822C 346.293,806.931 318.126,798.098 288,795.5C 284.05,795.407 280.216,795.907 276.5,797C 258.67,840.409 257.004,884.409 271.5,929C 228.842,979.007 212.009,1036.84 221,1102.5C 230.448,1217.94 291.948,1286.78 405.5,1309C 420.402,1312.1 435.402,1314.6 450.5,1316.5C 440.786,1325.59 433.286,1336.26 428,1348.5C 423.408,1360.54 419.908,1372.87 417.5,1385.5C 400.515,1392.66 382.849,1397.16 364.5,1399C 372.52,1399.02 376.354,1402.85 376,1410.5C 370.037,1416.53 363.537,1417.36 356.5,1413C 352.654,1409.48 352.654,1405.98 356.5,1402.5C 358.667,1401.05 361,1399.89 363.5,1399C 352.647,1398.39 341.981,1397.05 331.5,1395C 336.512,1402.48 334.512,1406.98 325.5,1408.5C 319.642,1407.99 315.142,1405.33 312,1400.5C 311.653,1395.15 314.153,1391.65 319.5,1390C 302.022,1381.53 287.522,1369.37 276,1353.5C 269.575,1339.97 260.742,1328.3 249.5,1318.5 Z"></path>
  </g>
  <g>
    <path style="opacity:0.99" fill="#000000" d="M 1491.5,727.5 C 1501.35,728.684 1511.18,728.684 1521,727.5C 1567.31,728.061 1612.81,734.561 1657.5,747C 1670.7,750.684 1682.54,756.85 1693,765.5C 1693.5,767 1694,768.5 1694.5,770C 1685.29,805.667 1676.79,841.5 1669,877.5C 1666.85,881.654 1663.51,884.32 1659,885.5C 1634.44,875.933 1609.44,870.266 1584,868.5C 1577.37,867.226 1570.7,866.226 1564,865.5C 1544.9,865.421 1525.4,865.588 1505.5,866C 1427.81,871.642 1380.98,913.142 1365,990.5C 1357.16,1030.47 1354.49,1070.8 1357,1111.5C 1357.98,1147.4 1364.98,1182.07 1378,1215.5C 1399.11,1264.9 1436.61,1291.4 1490.5,1295C 1519.12,1296.39 1547.78,1294.56 1576.5,1289.5C 1576.5,1245.5 1576.5,1201.5 1576.5,1157.5C 1547.16,1157.67 1517.83,1157.5 1488.5,1157C 1484.5,1155.67 1481.83,1153 1480.5,1149C 1480.35,1112.37 1480.51,1075.54 1481,1038.5C 1482.17,1033.33 1485.33,1030.17 1490.5,1029C 1564.17,1028.33 1637.83,1028.33 1711.5,1029C 1715.9,1029.73 1718.73,1032.23 1720,1036.5C 1720.67,1150.17 1720.67,1263.83 1720,1377.5C 1718.5,1380.33 1716.33,1382.5 1713.5,1384C 1671,1408.39 1626.5,1423.22 1580,1428.5C 1570.49,1430.2 1561.16,1431.53 1552,1432.5C 1529.79,1431.92 1507.46,1431.92 1485,1432.5C 1483.08,1431.68 1481.08,1431.02 1479,1430.5C 1431.15,1428.48 1385.65,1415.98 1342.5,1393C 1296.89,1365.58 1263.39,1327.41 1242,1278.5C 1218.36,1216.84 1207.52,1153.17 1209.5,1087.5C 1208.67,1042.4 1212.84,998.068 1222,954.5C 1252.18,807.847 1342.01,732.181 1491.5,727.5 Z"></path>
  </g>
  <g>
    <path style="opacity:0.99" fill="#000000" d="M 2365.5,752.5 C 2407.05,752.736 2448.55,752.736 2490,752.5C 2493.2,753.77 2495.87,755.77 2498,758.5C 2499.49,839.443 2499.99,920.443 2499.5,1001.5C 2562.83,1001.5 2626.17,1001.5 2689.5,1001.5C 2689.01,920.418 2689.51,839.418 2691,758.5C 2693.23,755.251 2696.23,753.251 2700,752.5C 2741.33,752.5 2782.67,752.5 2824,752.5C 2829.33,753.833 2832.67,757.167 2834,762.5C 2834.67,978.167 2834.67,1193.83 2834,1409.5C 2832.9,1414.26 2830.07,1417.43 2825.5,1419C 2782.83,1419.67 2740.17,1419.67 2697.5,1419C 2693.56,1417.39 2690.56,1414.72 2688.5,1411C 2689.5,1318.57 2689.83,1226.07 2689.5,1133.5C 2626.17,1133.5 2562.83,1133.5 2499.5,1133.5C 2499.67,1226.17 2499.5,1318.83 2499,1411.5C 2497.83,1415.33 2495.33,1417.83 2491.5,1419C 2448.83,1419.67 2406.17,1419.67 2363.5,1419C 2359.58,1417.42 2356.58,1414.75 2354.5,1411C 2355.33,1194.24 2355.83,977.403 2356,760.5C 2358.19,756.458 2361.36,753.791 2365.5,752.5 Z"></path>
  </g>
  <g>
    <path style="opacity:0.989" fill="#000000" d="M 3382.5,752.5 C 3424.05,752.736 3465.55,752.736 3507,752.5C 3511.13,753.396 3514.13,755.729 3516,759.5C 3516.17,833.169 3516.67,906.836 3517.5,980.5C 3572.26,950.613 3629.93,943.113 3690.5,958C 3728.04,969.888 3756.21,993.054 3775,1027.5C 3792.64,1063.06 3802.31,1100.73 3804,1140.5C 3805.91,1183.65 3804.24,1226.65 3799,1269.5C 3794.67,1306.13 3783,1340.13 3764,1371.5C 3736.4,1409.04 3699.56,1428.71 3653.5,1430.5C 3606.39,1435.35 3560.06,1427.18 3514.5,1406C 3503.82,1399.66 3493.49,1392.83 3483.5,1385.5C 3482.18,1394.94 3480.34,1404.27 3478,1413.5C 3476.38,1415.91 3474.21,1417.74 3471.5,1419C 3441.17,1419.67 3410.83,1419.67 3380.5,1419C 3375.45,1416.98 3372.45,1413.65 3371.5,1409C 3371.5,1194.33 3371.5,979.667 3371.5,765C 3372.95,758.727 3376.62,754.56 3382.5,752.5 Z M 3576.5,1069.5 C 3615.94,1064.46 3641.77,1080.8 3654,1118.5C 3657.41,1131.88 3659.91,1145.38 3661.5,1159C 3661.49,1178.14 3661.49,1197.3 3661.5,1216.5C 3660.56,1237.92 3657.06,1258.92 3651,1279.5C 3642.64,1299.85 3627.47,1311.02 3605.5,1313C 3573.17,1316.21 3543.01,1309.71 3515,1293.5C 3514.17,1225.5 3514.33,1157.5 3515.5,1089.5C 3534.92,1078.69 3555.25,1072.03 3576.5,1069.5 Z"></path>
  </g>
  <g>
    <path style="opacity:0.984" fill="#000000" d="M 1858.5,767.5 C 1894.88,767.934 1920.71,784.6 1936,817.5C 1948.88,855.818 1940.05,887.984 1909.5,914C 1881.19,932.665 1851.85,934.332 1821.5,919C 1782.9,890.449 1773.07,853.949 1792,809.5C 1806.92,783.961 1829.08,769.961 1858.5,767.5 Z"></path>
  </g>
  <g>
    <path style="opacity:0.987" fill="#000000" d="M 2059.5,834.5 C 2101.72,835.598 2143.88,835.598 2186,834.5C 2190.67,835.167 2193.33,837.833 2194,842.5C 2194.5,883.165 2194.67,923.832 2194.5,964.5C 2226.92,964.015 2259.25,964.515 2291.5,966C 2293.89,967.952 2295.39,970.452 2296,973.5C 2296.67,1007.5 2296.67,1041.5 2296,1075.5C 2295.3,1079.07 2293.47,1081.9 2290.5,1084C 2258.59,1085.49 2226.59,1085.99 2194.5,1085.5C 2194.33,1149.17 2194.5,1212.83 2195,1276.5C 2198.58,1294.08 2209.08,1305.25 2226.5,1310C 2235.66,1312.48 2245,1313.65 2254.5,1313.5C 2266.5,1312.61 2278.5,1312.11 2290.5,1312C 2293.33,1313.5 2295.5,1315.67 2297,1318.5C 2297.99,1350.92 2297.65,1383.25 2296,1415.5C 2293.13,1418.46 2289.63,1420.3 2285.5,1421C 2239.68,1434.32 2193.68,1434.99 2147.5,1423C 2101.77,1410.27 2072.27,1381.1 2059,1335.5C 2054.99,1320.48 2052.66,1305.48 2052,1290.5C 2051.5,1222.17 2051.33,1153.83 2051.5,1085.5C 2029.16,1085.67 2006.83,1085.5 1984.5,1085C 1981.27,1083.44 1979.1,1080.94 1978,1077.5C 1977.33,1048.83 1977.33,1020.17 1978,991.5C 1979.27,987.23 1982.1,984.73 1986.5,984C 2007.84,978.831 2029.18,973.664 2050.5,968.5C 2051.33,925.504 2051.83,882.504 2052,839.5C 2053.89,836.754 2056.39,835.087 2059.5,834.5 Z"></path>
  </g>
  <g>
    <path style="opacity:0.986" fill="#000000" d="M 1796.5,964.5 C 1839.83,964.333 1883.17,964.5 1926.5,965C 1929.76,966.587 1931.92,969.087 1933,972.5C 1933.67,1117.5 1933.67,1262.5 1933,1407.5C 1931.01,1415.82 1925.67,1420.15 1917,1420.5C 1879.24,1419.67 1841.4,1419.17 1803.5,1419C 1797.45,1418.56 1792.95,1415.73 1790,1410.5C 1788.34,1264.88 1788.01,1119.21 1789,973.5C 1790.64,969.7 1793.14,966.7 1796.5,964.5 Z"></path>
  </g>
  <g>
    <path style="opacity:0.987" fill="#000000" d="M 2899.5,965.5 C 2943.5,965.333 2987.5,965.5 3031.5,966C 3035.17,967.668 3037.33,970.501 3038,974.5C 3038.02,1075.19 3038.68,1175.86 3040,1276.5C 3042.75,1295.25 3053.25,1307.08 3071.5,1312C 3105.31,1317.77 3137.31,1310.77 3167.5,1291C 3166.83,1238.24 3166.5,1185.4 3166.5,1132.5C 3166.34,1078.78 3166.84,1025.11 3168,971.5C 3169.17,969 3171,967.167 3173.5,966C 3216.83,965.333 3260.17,965.333 3303.5,966C 3305.62,967.122 3307.46,968.622 3309,970.5C 3310.66,1117.42 3311,1264.42 3310,1411.5C 3308.86,1415.31 3306.36,1417.81 3302.5,1419C 3274.57,1419.42 3247.07,1419.92 3220,1420.5C 3215.75,1419.21 3212.75,1416.55 3211,1412.5C 3209.48,1404.53 3208.15,1396.53 3207,1388.5C 3148.53,1423.86 3089.2,1437.86 3029,1430.5C 2941.58,1424.4 2896.25,1377.07 2893,1288.5C 2892.33,1183.5 2892.33,1078.5 2893,973.5C 2894.28,970.062 2896.44,967.395 2899.5,965.5 Z"></path>
  </g>
  <g>
    <path style="opacity:0.821" fill="#000000" d="M 222.5,1299.5 C 228.575,1307.29 226.575,1310.79 216.5,1310C 210.63,1307.34 209.63,1303.67 213.5,1299C 216.531,1298.5 219.531,1298.67 222.5,1299.5 Z"></path>
  </g>
  <g>
    <path style="opacity:0.866" fill="#000000" d="M 249.5,1318.5 C 250.891,1320.79 251.891,1323.29 252.5,1326C 252.262,1329.74 250.262,1331.57 246.5,1331.5C 238.566,1329.91 235.566,1325.25 237.5,1317.5C 238.688,1316.16 240.188,1315.49 242,1315.5C 244.708,1316.11 247.208,1317.11 249.5,1318.5 Z"></path>
  </g>
  <g>
    <path style="opacity:0.848" fill="#000000" d="M 257.5,1340.5 C 267.088,1341.59 271.255,1346.92 270,1356.5C 266.721,1361.22 262.887,1361.72 258.5,1358C 254.116,1354.51 252.282,1350.01 253,1344.5C 254.397,1342.93 255.897,1341.6 257.5,1340.5 Z"></path>
  </g>
  <g>
    <path style="opacity:0.874" fill="#000000" d="M 281.5,1374.5 C 290.749,1373.93 296.416,1378.09 298.5,1387C 297.382,1393.15 293.715,1395.15 287.5,1393C 282.134,1390.47 278.801,1386.3 277.5,1380.5C 278.467,1378.21 279.8,1376.21 281.5,1374.5 Z"></path>
  </g>
  <g>
    <path style="opacity:0.865" fill="#000000" d="M 404.5,1399.5 C 409.715,1398.7 414.215,1400.04 418,1403.5C 419.183,1407.27 418.349,1410.44 415.5,1413C 410.002,1417.04 404.335,1417.37 398.5,1414C 394.5,1410.33 394.5,1406.67 398.5,1403C 400.727,1402.06 402.727,1400.89 404.5,1399.5 Z"></path>
  </g>
</svg>
